<svg xmlns="http://www.w3.org/2000/svg" enable-background="new 0 0 512 512" viewBox="0 0 512 512" id="event"><path fill="#deffe8" d="M436.2,201.3v202.5c0,22.1-17.9,40-40,40H115.8c-22.1,0-40-17.9-40-40V201.3H436.2z"></path><path fill="#77f7aa" d="M436.2,151.1v50.2H75.8v-50.2c0-22.1,17.9-40,40-40h15v30.4h61v-30.4h128.5v30.4h61v-30.4h15
						C418.3,111.1,436.2,129,436.2,151.1z"></path><path fill="#deffe8" d="M381.2 111.1v30.4h-61V98.7c0-16.8 13.7-30.5 30.5-30.5 16.8 0 30.5 13.7 30.5 30.5L381.2 111.1zM191.8 111.1v30.4h-61V98.7c0-16.8 13.7-30.5 30.5-30.5 16.8 0 30.5 13.6 30.5 30.5L191.8 111.1z"></path><path fill="#24b361" d="M396.2,101H391v-2.3c0-22.4-18.1-40.5-40.5-40.5S310,76.3,310,98.7v2.3H202v-2.3
					c0-22.4-18.1-40.5-40.5-40.5S121,76.3,121,98.7v2.3h-5.2c-27.6,0.1-49.9,22.5-49.8,50.1v252.7c0,27.6,22.2,50.2,49.8,50.2h280.4
					c27.6,0,49.8-22.6,49.8-50.2V151.1C446.1,123.5,423.8,101.1,396.2,101z M330,98.7c0-11.3,9.2-20.5,20.5-20.5S371,87.4,371,98.7
					V132h-41V98.7z M141,98.7c0-11.3,9.2-20.5,20.5-20.5S182,87.4,182,98.7V132h-41V98.7z M115.8,121h5.2v20.5
					c0,5.5,4.3,10.5,9.8,10.5h61c5.7-0.2,10.2-4.8,10.2-10.5V121h108v20.5c0.1,5.7,4.6,10.3,10.2,10.5h61c5.5,0,9.8-5,9.8-10.5V121
					h5.2c16.5,0.1,29.9,13.6,29.8,30.1V191H86v-39.9C85.9,134.6,99.2,121.1,115.8,121z M396.2,434H115.8
					c-16.6-0.1-29.9-13.6-29.8-30.2V211h340v192.8C426.1,420.4,412.8,433.9,396.2,434z"></path><path fill="#24b361" d="M378.5 270H130.8c-5.5 0-10 4.5-10 10s4.5 10 10 10h247.7c5.5 0 10-4.5 10-10S384 270 378.5 270zM378.5 347H130.8c-5.5 0-10 4.5-10 10s4.5 10 10 10h247.7c5.5 0 10-4.5 10-10S384 347 378.5 347z"></path></svg>